<?xml version="1.0" encoding="UTF-8" standalone="no"?>
<svg
   id="svg2"
   viewBox="0 0 512 511.99999"
   version="1.1"
   sodipodi:docname="multiflexi-housekeeper.svg"
   xml:space="preserve"
   width="512"
   height="512"
   inkscape:version="1.4 (e7c3feb100, 2024-10-09)"
   xmlns:inkscape="http://www.inkscape.org/namespaces/inkscape"
   xmlns:sodipodi="http://sodipodi.sourceforge.net/DTD/sodipodi-0.dtd"
   xmlns="http://www.w3.org/2000/svg"
   xmlns:svg="http://www.w3.org/2000/svg"
   xmlns:rdf="http://www.w3.org/1999/02/22-rdf-syntax-ns#"
   xmlns:cc="http://creativecommons.org/ns#"
   xmlns:dc="http://purl.org/dc/elements/1.1/"><defs
     id="defs1"><clipPath
       id="clipPath3444"><path
         id="path3446"
         d="M 11.52,162 C 11.52,81.677 135.307,16.56 288,16.56 440.693,16.56 564.48,81.678 564.48,162 564.48,242.322 440.693,307.44 288,307.44 135.307,307.44 11.52,242.32 11.52,162"
         inkscape:connector-curvature="0" /></clipPath><radialGradient
       id="radialGradient3452"
       cx="0"
       cy="0"
       r="1"
       fx="0"
       fy="0"
       gradientTransform="matrix(363.06,0,0,-363.06,177.52,256.31)"
       gradientUnits="userSpaceOnUse"
       spreadMethod="pad"><stop
         id="stop3454"
         offset="0"
         stop-color="#aeb2d5" /><stop
         id="stop3456"
         offset="0.3"
         stop-color="#aeb2d5" /><stop
         id="stop3458"
         offset="0.75"
         stop-color="#484c89" /><stop
         id="stop3460"
         offset="1"
         stop-color="#484c89" /></radialGradient><clipPath
       id="clipPath3468"><path
         id="path3470"
         d="M 0,324 H 576 V 0 H 0 Z"
         inkscape:connector-curvature="0" /></clipPath><clipPath
       id="clipPath3480"><path
         id="path3482"
         d="M 0,324 H 576 V 0 H 0 Z"
         inkscape:connector-curvature="0" /></clipPath><filter
       style="color-interpolation-filters:sRGB"
       inkscape:label="Drop Shadow"
       id="filter4622"
       x="-0.1215186"
       y="-0.21051334"
       width="1.2936701"
       height="1.5087405"><feFlood
         flood-opacity="0.498039"
         flood-color="rgb(0,0,0)"
         result="flood"
         id="feFlood4612" /><feComposite
         in="flood"
         in2="SourceGraphic"
         operator="in"
         result="composite1"
         id="feComposite4614" /><feGaussianBlur
         in="composite1"
         stdDeviation="6"
         result="blur"
         id="feGaussianBlur4616" /><feOffset
         dx="6"
         dy="6"
         result="offset"
         id="feOffset4618" /><feComposite
         in="SourceGraphic"
         in2="offset"
         operator="over"
         result="fbSourceGraphic"
         id="feComposite4620" /><feColorMatrix
         result="fbSourceGraphicAlpha"
         in="fbSourceGraphic"
         values="0 0 0 -1 0 0 0 0 -1 0 0 0 0 -1 0 0 0 0 1 0"
         id="feColorMatrix4624" /><feFlood
         id="feFlood4626"
         flood-opacity="0.498039"
         flood-color="rgb(0,0,0)"
         result="flood"
         in="fbSourceGraphic" /><feComposite
         in2="fbSourceGraphic"
         id="feComposite4628"
         in="flood"
         operator="in"
         result="composite1" /><feGaussianBlur
         id="feGaussianBlur4630"
         in="composite1"
         stdDeviation="6"
         result="blur" /><feOffset
         id="feOffset4632"
         dx="6"
         dy="6"
         result="offset" /><feComposite
         in2="offset"
         id="feComposite4634"
         in="fbSourceGraphic"
         operator="over"
         result="fbSourceGraphic" /><feColorMatrix
         result="fbSourceGraphicAlpha"
         in="fbSourceGraphic"
         values="0 0 0 -1 0 0 0 0 -1 0 0 0 0 -1 0 0 0 0 1 0"
         id="feColorMatrix4636" /><feFlood
         id="feFlood4638"
         flood-opacity="0.498039"
         flood-color="rgb(0,0,0)"
         result="flood"
         in="fbSourceGraphic" /><feComposite
         in2="fbSourceGraphic"
         id="feComposite4640"
         in="flood"
         operator="in"
         result="composite1" /><feGaussianBlur
         id="feGaussianBlur4642"
         in="composite1"
         stdDeviation="6"
         result="blur" /><feOffset
         id="feOffset4644"
         dx="6"
         dy="6"
         result="offset" /><feComposite
         in2="offset"
         id="feComposite4646"
         in="fbSourceGraphic"
         operator="over"
         result="composite2" /></filter><filter
       style="color-interpolation-filters:sRGB"
       inkscape:label="Color Shift"
       id="filter3861"><feColorMatrix
         type="hueRotate"
         values="112"
         result="color1"
         id="feColorMatrix3857" /><feColorMatrix
         type="saturate"
         values="0.6"
         result="fbSourceGraphic"
         id="feColorMatrix3859" /><feColorMatrix
         result="fbSourceGraphicAlpha"
         in="fbSourceGraphic"
         values="0 0 0 -1 0 0 0 0 -1 0 0 0 0 -1 0 0 0 0 1 0"
         id="feColorMatrix3863" /><feColorMatrix
         id="feColorMatrix3865"
         type="hueRotate"
         values="112"
         result="color1"
         in="fbSourceGraphic" /><feColorMatrix
         id="feColorMatrix3867"
         type="saturate"
         values="0.6"
         result="color2" /></filter><filter
       style="color-interpolation-filters:sRGB"
       inkscape:label="Color Shift"
       id="filter3873"><feColorMatrix
         type="hueRotate"
         values="112"
         result="color1"
         id="feColorMatrix3869" /><feColorMatrix
         type="saturate"
         values="0.6"
         result="fbSourceGraphic"
         id="feColorMatrix3871" /><feColorMatrix
         result="fbSourceGraphicAlpha"
         in="fbSourceGraphic"
         values="0 0 0 -1 0 0 0 0 -1 0 0 0 0 -1 0 0 0 0 1 0"
         id="feColorMatrix3911" /><feColorMatrix
         id="feColorMatrix3913"
         type="hueRotate"
         values="323"
         result="color1"
         in="fbSourceGraphic" /><feColorMatrix
         id="feColorMatrix3915"
         type="saturate"
         values="0.61"
         result="color2" /></filter><filter
       style="color-interpolation-filters:sRGB"
       inkscape:label="Color Shift"
       id="filter4017"
       x="-0.1215186"
       y="-0.21051334"
       width="1.2936701"
       height="1.5087405"><feColorMatrix
         type="hueRotate"
         values="327"
         result="color1"
         id="feColorMatrix4013" /><feColorMatrix
         type="saturate"
         values="1"
         result="color2"
         id="feColorMatrix4015" /></filter><filter
       style="color-interpolation-filters:sRGB"
       inkscape:label="Color Shift"
       id="filter4135"
       x="0"
       y="0"
       width="1"
       height="1"><feColorMatrix
         type="hueRotate"
         values="229"
         result="color1"
         id="feColorMatrix4131" /><feColorMatrix
         type="saturate"
         values="0.79"
         result="color2"
         id="feColorMatrix4133" /></filter><linearGradient
       x1="0"
       y1="0"
       x2="1"
       y2="0"
       gradientUnits="userSpaceOnUse"
       gradientTransform="matrix(-4.02e-6,-91.8907,-91.8907,4.02e-6,85.8809,161.434)"
       spreadMethod="pad"
       id="linearGradient3027"><stop
         style="stop-opacity:1;stop-color:#97d9f6"
         offset="0"
         id="stop3029" /><stop
         style="stop-opacity:1;stop-color:#0f80cc"
         offset="0.920245"
         id="stop3031" /><stop
         style="stop-opacity:1;stop-color:#0f80cc"
         offset="1"
         id="stop3033" /></linearGradient><filter
       style="color-interpolation-filters:sRGB"
       inkscape:label="Drop Shadow"
       id="filter1553"><feFlood
         flood-opacity="0.498039"
         flood-color="rgb(0,0,0)"
         result="flood"
         id="feFlood1543" /><feComposite
         in="flood"
         in2="SourceGraphic"
         operator="in"
         result="composite1"
         id="feComposite1545" /><feGaussianBlur
         in="composite1"
         stdDeviation="3"
         result="blur"
         id="feGaussianBlur1547" /><feOffset
         dx="6"
         dy="6"
         result="offset"
         id="feOffset1549" /><feComposite
         in="SourceGraphic"
         in2="offset"
         operator="over"
         result="composite2"
         id="feComposite1551" /></filter><filter
       inkscape:label="Black Hole"
       inkscape:menu="Morphology"
       inkscape:menu-tooltip="Creates a black light inside and outside"
       height="1.0441137"
       width="1.0594339"
       y="-0.022056837"
       x="-0.029716946"
       style="color-interpolation-filters:sRGB"
       id="filter776"><feGaussianBlur
         stdDeviation="5"
         in="SourceAlpha"
         result="result1"
         id="feGaussianBlur764" /><feComposite
         operator="arithmetic"
         k2="3.2"
         k1="-1"
         k4="-2"
         result="result3"
         in2="result1"
         id="feComposite766"
         k3="0" /><feColorMatrix
         values="1 0 0 0 0 0 1 0 0 0 0 0 1 0 0 0 0 0 10 0 "
         result="result2"
         id="feColorMatrix768" /><feComposite
         result="fbSourceGraphic"
         in="SourceGraphic"
         operator="out"
         in2="result2"
         id="feComposite770" /><feBlend
         mode="multiply"
         in="result1"
         in2="fbSourceGraphic"
         result="result91"
         id="feBlend772" /><feBlend
         mode="screen"
         in="fbSourceGraphic"
         in2="result91"
         id="feBlend774" /></filter><style>
    @keyframes hk-spin {
      to { transform: rotate(360deg); }
    }
    #g2 {
      transform-box: fill-box;
      transform-origin: center;
      animation: hk-spin 10s linear infinite;
    }
  </style></defs><sodipodi:namedview
     id="namedview1"
     pagecolor="#ffffff"
     bordercolor="#000000"
     borderopacity="0.25"
     inkscape:showpageshadow="2"
     inkscape:pageopacity="0.0"
     inkscape:pagecheckerboard="0"
     inkscape:deskcolor="#d1d1d1"
     inkscape:zoom="0.46537502"
     inkscape:cx="63.389737"
     inkscape:cy="372.8176"
     inkscape:window-width="1239"
     inkscape:window-height="1848"
     inkscape:window-x="0"
     inkscape:window-y="0"
     inkscape:window-maximized="1"
     inkscape:current-layer="svg2" /><g
     id="g1"
     transform="translate(68.761748,17.190437)"><g
       id="layer1"
       transform="matrix(1.8421812,0,0,1.8421812,-251.78119,-647.34603)"><path
         id="path3011"
         fill="#28170b"
         d="m 278.36,383.77 c -4.6911,1.0212 -11.08,1.8832 -13.103,5.8876 -0.35039,2.1586 6.554,3.5535 1.6404,4.0966 -4.0924,1.2383 -9.9538,2.4111 -11.201,6.1906 -0.86422,2.6403 5.3107,2.3582 4.1992,2.4581 -2.5516,1.8565 -6.3856,2.8097 -8.0201,5.3042 -2.4221,3.7476 3.0291,5.1137 6.6924,4.5485 4.0673,-0.19045 8.2793,-0.48286 12.075,-1.6937 -3.5691,2.1551 -7.7801,5.0016 -6.9787,9.0262 1.145,4.6582 7.5477,3.8332 11.397,2.1897 -0.2981,2.7374 -1.9669,8.2182 3.6491,8.8353 3.9152,0.40423 8.4145,-0.45204 11.289,-2.5151 1.2806,3.4904 6.937,3.047 10.562,2.8376 4.1422,1.2362 9.72,-3.2622 12.416,0.60371 4.4641,1.5768 8.4498,-2.0789 11.863,-3.8798 4.865,-1.1861 8.2127,-4.0863 12.666,-5.8276 4.8076,-1.4828 4.7716,-5.8358 1.8386,-8.3954 4.7484,-0.16836 6.7185,-4.1865 5.5422,-7.5476 -1.0979,-6.1124 3.627,-12.615 -0.33169,-18.411 -3.3175,-2.328 -6.4567,-5.129 -10.617,-6.6273 -6.5405,-1.8333 -13.135,-4.1693 -20.231,-3.7754 -4.7596,0.0697 -9.5189,-1.267 -14.215,0.0158 -4.3216,0.21903 -8.4581,0.88564 -12.315,2.674 -2.7933,1.3549 -5.1146,4.0457 -8.8175,4.0046 z" /><g
         id="g3872"
         transform="matrix(0.97237,-0.23343,0.23343,0.97237,-80.213,59.804)"><path
           id="path3033"
           d="m 140.53,580.41 -12.469,10.875 64.562,21.781 -1.375,-14.969 -50.719,-17.688 z"
           stroke="#ac9d93"
           fill="#c8beb7" /><path
           id="rect3027"
           d="m 223.66,392 c 0.80692,0.40569 -4.7456,2.4969 -2.7812,1.7277 l -17.424,189.14 -18.83,-1.6875 -9.3438,10.625 22.062,2.4062 -0.0312,0.34375 c 2.0055,0.22238 4.46,2.7904 4.7812,0.15625 l 4.3188,0.46943 22.994,2.4993 -2.25,-11.469 -17.196,-2.2455 15.188,-189.08 c -0.49054,-1.4397 -3.6414,-3.9672 -1.4866,-2.8839 z"
           stroke="#6c5d53"
           fill="#917c6f"
           transform="matrix(0.97237,0.23343,-0.23343,0.97237,107.93,-35.593)" /><path
           id="path3865"
           d="m 176.26,594.16 5.1615,1.0614 -3.8109,12.851 -5.9756,-4.2838 z"
           fill="#ac9d93" /><path
           id="path3867"
           d="m 160.19,588.09 5.6237,1.6825 -5.7017,11.159 -5.797,-2.1409 z"
           fill="#ac9d93" /><path
           id="path3869"
           d="m 145.01,582.56 5.3401,1.9543 -5.9538,11.065 -5.6184,-2.8552 z"
           fill="#ac9d93" /></g><path
         id="path2987"
         d="m 304.31,408.91 c 0.69338,6.6893 0.92312,13.109 -0.78125,18.375 -4.1124,-0.90219 -7.7519,-1.3813 -10.031,-0.6875 -3.878,1.1805 -5.9482,2.6078 -7.125,4.4688 -0.13174,0.0511 -0.26663,0.12278 -0.40625,0.25 -3.6747,3.3482 -18.425,30.069 -24.906,34.844 -4.9727,-1.4892 -3.5571,-8.3919 -21.25,-18.469 0.4276,-2.5315 0.74778,-7.6175 -0.93623,-9.4891 -1.2155,-1.3508 0.39581,1.586 -5.3125,1.8755 -1.3628,0.0691 0.0233,-2.6672 -1.3222,-2.8945 -4.728,-0.79862 -5.8024,7.0061 -6.6166,9.1018 -0.73091,1.8813 3.2013,6.6197 4.2644,8.3353 1.211,1.9544 -0.0271,-3.5623 2.2719,-3.5322 2.0008,0.0262 3.1419,-1.1066 3.4159,0.87548 0.98418,7.1178 1.6885,0.30667 2.2665,0.19638 0,0 18.472,23.556 24.781,21.375 8.5402,-2.9528 25.781,-30.062 25.781,-30.062 1.3727,1.9591 2.9563,4.6853 4.5,9.125 11.41,18.592 11.895,41.384 1.8125,66.5 l 26.219,-1.1875 c -2.0361,-9.1766 -3.0345,-22.372 -0.55804,-23.853 l 4.5893,-0.0848 3.5625,-5.3125 -4.4062,-4.5312 c 0,0 46.06,-22.399 43.156,-26.812 -4.0675,-6.1815 -43.125,-19.5 -43.125,-19.5 -1.7373,-1.6072 -3.7632,-3.3267 -6.25,-5.3125 -0.35018,-4.3049 -0.16791,-11.88 3.2188,-22.219 z m 28.281,40.969 c 10.087,4.1807 23.688,9 23.688,9 0,0 -26.359,14.284 -35.5,21.781 l -0.0312,-0.0312 -0.28125,0.3125 c -0.021,0.0177 -0.0417,0.0449 -0.0625,0.0625 0.97986,-4.2729 2.2628,-8.3305 3.75,-12.312 2.6537,-6.6868 6.6258,-10.066 8.4375,-18.812 z m -13.375,37.406 2.7991,1.5134 -3.2054,2.1741 c 0.10974,-1.248 0.2382,-2.4868 0.40625,-3.6875 z"
         stroke="#deaa87"
         fill="#ffccaa" /><path
         id="path3887"
         fill="#deaa87"
         d="m 312.33,442.65 c 0,0 5,3.5714 4.2857,6.4286 -0.71429,2.8571 -0.71429,1.7857 -0.71429,1.7857" /><g
         id="g3858"
         transform="matrix(0.77752,0,0,0.61282,76.178,164.77)"><path
           id="path3170"
           d="m 271.36,377.44 c 0,0 0.16797,-0.69426 -3.3145,-3.0066 -3.48247,-2.31234 -6.1982,-0.50302 -5.6607,1.8317 0.53749,2.3347 0.33185,2.9064 0.25907,4.726 -0.0728,1.8196 -1.8495,3.4687 -1.9628,7.0366 -0.14607,4.5986 2.6603,7.5027 4.8159,6.187 2.1556,-1.3157 5.1082,-3.4637 5.1082,-3.4637 z"
           stroke="#deaa87"
           fill="#ffccaa" /><path
           id="path3172"
           d="m 266.74,391.53 c -1.8339,-0.0962 -3.0794,0.0251 -3.9688,1.4062 -0.71319,1.4264 -1.1688,3.6633 -1.375,6.1875 -0.20615,2.5242 -0.13186,5.3436 0.21875,7.875 0.35061,2.5314 0.88949,4.2776 1.6875,5.2188 0.1995,0.23528 0.41983,0.41924 0.6875,0.53125 0.26767,0.11201 0.56247,0.15286 0.84375,0.0625 0.56257,-0.18071 0.98716,-0.69306 1.3438,-1.4062 0.71319,-1.4264 1.1376,-3.6321 1.3438,-6.1562 0.20615,-2.5242 0.8774,-8.915 0.52679,-11.446 l -1.1786,0.83929 c 0.33838,2.4431 -0.14799,8.0618 -0.34821,10.513 -0.20022,2.4516 -0.6541,4.6207 -1.25,5.8125 -0.29795,0.5959 -0.5879,0.83297 -0.71875,0.875 -0.0654,0.021 -0.11329,0.031 -0.1875,0 -0.0742,-0.031 -0.18465,-0.0992 -0.3125,-0.25 -0.5114,-0.60309 -1.1304,-2.3069 -1.4688,-4.75 -0.33838,-2.4431 -0.38772,-5.1734 -0.1875,-7.625 0.20022,-2.4516 0.68535,-4.6207 1.2812,-5.8125 0.50697,-1.1951 1.7035,-0.90009 2.8438,-0.90625 0,0 0.44521,-0.95214 0.21875,-0.96875 z"
           style="color:#000000;text-indent:0;text-transform:none"
           fill="#ffdd55" /><path
           id="path3170-0"
           d="m 268.2,379.71 c 0,0 0.0613,-0.37805 -1.2097,-1.6372 -1.271,-1.2591 -2.2622,-0.27391 -2.066,0.99742 0.19617,1.2713 0.12112,1.5826 0.0946,2.5735 -0.0266,0.99084 -0.67503,1.8888 -0.71639,3.8316 -0.0533,2.504 0.97096,4.0854 1.7577,3.369 0.78673,-0.71646 1.8644,-1.8861 1.8644,-1.8861 z"
           fill="#deaa87" /></g><path
         id="path2985"
         d="m 357.01,403.71 c -1.9356,11.555 -34.908,18.753 -46.455,17.609 -16.514,-1.6358 -26.621,-10.453 -26.158,-22.008 -3.1243,-9.2687 17.366,-22.485 39.946,-20.364 22.58,2.1213 34.603,13.208 32.667,24.763 z"
         stroke="#deaa87"
         fill="#ffccaa" /><path
         id="path2991"
         d="m 293.53,504.07 c 0,0 3.4541,20.994 4.4643,37.157 1.0102,16.162 10e-6,24.244 10e-6,24.244 -0.93488,16.41 5.3926,27.159 0.50507,38.386 0,0 -11.003,4.2832 -16.794,4.504 -1.2677,0.0483 -2.6959,-1.4233 -3.7404,-0.70321 -1.0527,0.72574 -1.5152,2.8086 -0.6784,3.7754 1.901,2.1962 8.7089,-0.29587 8.7089,-0.29587 0,0 6.8958,-2.3091 10.484,-2.5306 2.3678,-0.14619 2.8558,-1.0084 3.6618,0.17485 0.78159,1.1474 2.8642,-3.3263 3.6618,-9.2176 2.3025,-17.007 -0.75818,-16.314 -0.25254,-33.761 0,0 3.0305,-26.596 3.5355,-31.141 0.50508,-4.5457 1.7244,-30.116 1.7244,-30.116 0,0 -14.094,0.62971 -15.28,-0.47444 z"
         stroke="#deaa87"
         fill="#ffccaa" /><path
         id="path2993"
         d="m 317.78,505.44 c 0,0 13.59,56.184 13.03,57.623 -1.1828,3.043 -22.959,31.358 -22.959,31.358 0,0 -0.91629,7.6934 1.2552,10.448 0.914,1.1595 3.4466,0.24396 4.1526,1.5406 0.48067,0.88274 0.12794,2.311 -0.65301,2.9438 -1.6913,1.3704 -6.2983,2.2257 -6.5301,0.0613 -1.3585,-12.684 -6.5075,-9.9753 -5.2959,-15.203 0.61686,-2.6616 4.0586,-1.7244 4.0586,-1.7244 0,0 18.834,-25.437 20.119,-29.442 1.0944,-3.4112 -19.066,-56.86 -19.066,-56.86 z"
         stroke="#deaa87"
         fill="#ffccaa" /><path
         id="path3007"
         fill="#28170b"
         d="m 287.11,381.42 c -5.4702,1.6656 -6.6983,13.343 -1.171,12.412 2.4932,0.37989 9.94,-7.6889 9.5481,-4.4007 2.8786,4.0703 11.51,-2.2 14.159,-4.5537 2.0466,4.7018 10.575,-0.58863 13.217,-2.6993 13.484,3.9455 4.2325,7.7005 4.3269,10.771 0.27392,4.4076 18.8,0.23862 20.884,0.66205 -5.893,1.3321 -9.8598,6.6483 -5.8194,5.8185 1.7418,0.1611 5.6424,-0.58292 1.8612,0.54892 -2.2328,1.0602 -5.7728,4.4047 -1.1954,5.1063 -2.9812,2.0006 -9.0774,3.7161 -6.5516,7.6941 0.8443,2.509 8.0278,0.64114 7.1442,1.4552 -14.786,0.34022 -6.1903,5.6257 -6.318,5.6755 -2.6056,2.488 -9.8618,3.1107 -10.006,6.2326 3.3063,0.79303 8.1953,-0.50052 8.4391,3.5479 3.4565,2.642 8.3048,0.23845 11.84,-1.0204 3.0911,-0.25444 4.6336,-2.6736 5.5647,-4.1434 5.2247,-0.91904 11.837,1.5281 16.041,-1.9234 2.5671,-4.0169 -1.7865,-7.6436 -3.874,-11.003 -1.8393,-4.1956 5.5617,-6.3098 4.5568,-10.733 0.62894,-4.2257 -2.9991,-8.016 -7.1292,-10.264 -6.5009,-1.3312 -3.9515,-7.5406 -5.2571,-11.37 -2.8247,-4.0356 -8.5412,-7.125 -14.492,-6.5978 -5.0199,0.46524 -10.092,1.9357 -14.178,-1.3916 -5.4544,-3.3234 -8.6922,3.1216 -13.688,3.915 -5.5688,1.162 -6.1931,-5.6966 -11.262,-6.7361 -5.0867,-2.1573 -7.4293,2.8942 -10.705,4.8481 -3.3622,-2.5672 -7.8523,-1.874 -9.5958,2.4968 -2.2741,4.049 -0.41056,3.9468 3.0128,5.0146 0.61958,0.54454 0.42747,-0.0691 0.64772,0.63886 z" /><path
         id="path3015"
         d="m 294.34,425.75 c -0.96493,0.0604 -1.8831,0.2887 -2.8125,0.875 1.1099,2.325 7.6713,7.056 7.9375,18.562 -3.2745,1.0599 -6.156,2.8616 -9.0625,4.875 2.9099,7.3196 4.8116,11.364 7.1964,12.567 2.4784,5.66 3.0712,22.61 2.9286,28.589 l 18.156,2.0312 2.0312,-10.688 c 0.58856,-4.8007 2.4308,-9.2641 4.125,-13.75 1.0928,-3.7916 4.7288,-6.1621 5.5312,-10.062 0.15932,-2.8643 2.9906,-5.1144 1.8125,-7.9062 -0.83726,-0.83322 -1.6464,-1.4746 -2.4375,-2 -0.0996,-0.79142 -0.95989,-7.7458 -1.4375,-9.6562 -0.50508,-2.0203 -5.8125,-3.2812 -5.8125,-3.2812 2.3553,4.1848 3.8827,7.2728 4.2188,11.562 -0.77529,-0.19819 -1.5819,-0.31669 -2.4375,-0.34375 -2.9642,-0.0938 -6.3413,1.4277 -8.2812,3.2812 -3.0799,-2.2224 -7.4773,-5.8004 -11.906,-6.0625 0.1313,-8.5452 0.65799,-12.265 -6.5938,-18.469 -1.1662,-0.0778 -2.1913,-0.18538 -3.1562,-0.125 z"
         stroke="#c83737"
         fill="#ff4141" /><path
         id="path3021"
         d="m 300.02,489.2 c -15.989,5.4636 -9.1831,25.927 -12.122,38.891 0,0 29.8,7.0711 37.881,2.0203 8.0812,-5.0508 5.0508,-4.0406 5.0508,-4.0406 0,0 -5.0508,-7.5762 -7.0711,-14.647 -2.0203,-7.0711 -4.5457,-20.708 -4.5457,-20.708 -5.6985,4.2074 -13.456,-0.6611 -19.193,-1.5152 z"
         stroke="#d4aa00"
         fill="#ffc022" /><g
         id="g3079"
         transform="matrix(0.76801,0.095552,-0.12123,0.60532,126.55,139.08)"><g
           id="g3088"
           transform="translate(0.22326,-1.8249)"><path
             id="path3035"
             d="m 293.95,390.06 c 0,4.5329 -4.3299,6.0128 -9.072,6.0128 -4.7421,0 -8.1006,-1.48 -8.1006,-6.0128 0,-4.5329 3.8442,-8.9448 8.5863,-8.9448 4.7421,0 8.5863,4.4119 8.5863,8.9448 z"
             fill="#ffffff" /><path
             id="path3040"
             d="m 285.69,381.97 c -2.4614,0.0942 -4.5522,1.8402 -4.9375,4.2812 -0.44038,2.7898 1.5444,5.4183 4.4375,5.875 2.8931,0.45669 5.5909,-1.429 6.0312,-4.2188 0.44038,-2.7898 -1.5444,-5.4183 -4.4375,-5.875 -0.36164,-0.0571 -0.74212,-0.076 -1.0938,-0.0625 z"
             fill="#abc837"
             transform="rotate(-8.9701543,299.55297,392.04421)" /><path
             id="path3042"
             d="m 292.19,393.11 c 0,3.4171 -2.6005,6.1872 -5.8084,6.1872 -3.2079,0 -5.8084,-2.7701 -5.8084,-6.1872 0,-3.4171 2.6005,-6.1872 5.8084,-6.1872 3.2079,0 5.8084,2.7701 5.8084,6.1872 z"
             fill="#22280b"
             transform="matrix(0.52174,0,0,0.42857,135.95,221.48)" /><path
             id="path3038"
             d="m 294.46,386.78 c -0.50508,1.2499 -3.5917,1.4093 -8.3338,1.4093 -4.7421,0 -9.3439,-0.66446 -9.5964,-2.1669 -0.75138,-4.4702 4.3493,-6.1669 9.0914,-6.1669 4.7421,0 8.8388,2.3916 8.8388,6.9245 z"
             fill="#668000" /><path
             id="path3044"
             fill="#ffffff"
             d="m 283.73,390.46 c 0,0.76711 -0.90452,1.389 -2.0203,1.389 -1.11578,0 -2.0203,-0.62185 -2.0203,-1.389 0,-0.7671 0.90452,-1.389 2.0203,-1.389 1.11578,0 2.0203,0.62186 2.0203,1.389 z" /><path
             id="path3047"
             fill="#803300"
             d="m 287.26,387.56 c 0,0 -3.1567,-0.12627 -4.5457,-0.75762 -1.389,-0.63134 -4.4194,-1.894 -4.4194,-1.894 l 1.1364,1.389 -3.7881,-2.3991 1.2627,1.7678 -4.5457,-2.2728 3.4093,2.9042 c 0,0 1.894,0.88388 2.6516,1.0102 0.75761,0.12627 3.0304,0.75761 3.7881,0.75761 0.75761,0 8.3338,0.12627 8.3338,0.12627 z" /></g></g><g
         id="g3071"
         transform="matrix(0.76232,0.12058,-0.15298,0.60084,142.37,133.33)"><path
           id="path3059"
           d="m 307.33,384.7 c 0,4.5329 3.5958,6.2322 8.3378,6.2322 4.7421,0 8.8347,-1.6993 8.8347,-6.2322 0,-4.5329 -3.8442,-8.9448 -8.5863,-8.9448 -4.7421,0 -8.5863,4.4119 -8.5863,8.9448 z"
           fill="#ffffff" /><path
           id="path3061"
           d="m 292.19,393.11 c 0,3.4171 -2.6005,6.1872 -5.8084,6.1872 -3.2079,0 -5.8084,-2.7701 -5.8084,-6.1872 0,-3.4171 2.6005,-6.1872 5.8084,-6.1872 3.2079,0 5.8084,2.7701 5.8084,6.1872 z"
           fill="#abc837"
           transform="matrix(-0.91304,0,0,0.82653,577.39,58.984)" /><path
           id="path3063"
           d="m 292.19,393.11 c 0,3.4171 -2.6005,6.1872 -5.8084,6.1872 -3.2079,0 -5.8084,-2.7701 -5.8084,-6.1872 0,-3.4171 2.6005,-6.1872 5.8084,-6.1872 3.2079,0 5.8084,2.7701 5.8084,6.1872 z"
           fill="#22280b"
           transform="matrix(-0.52174,0,0,0.42857,465.33,216.12)" /><path
           id="path3065"
           d="m 306.83,381.42 c 0.50508,1.2499 3.5917,1.4093 8.3338,1.4093 4.7421,0 9.3439,-0.66446 9.5964,-2.1669 0.75138,-4.4702 -4.3493,-6.1669 -9.0914,-6.1669 -4.7421,0 -8.8388,2.3916 -8.8388,6.9245 z"
           fill="#668000" /><path
           id="path3067"
           fill="#ffffff"
           d="m 310.33,385.01 c 0,0.76711 0.90452,1.389 2.0203,1.389 1.11578,0 2.0203,-0.62185 2.0203,-1.389 0,-0.7671 -0.90452,-1.389 -2.0203,-1.389 -1.11578,0 -2.0203,0.62186 -2.0203,1.389 z" /><path
           id="path3069"
           fill="#803300"
           d="m 314.02,382.2 c 0,0 3.1567,-0.12627 4.5457,-0.75762 1.389,-0.63134 4.4194,-1.894 4.4194,-1.894 l -1.1364,1.389 3.7881,-2.3991 -1.2627,1.7678 4.5457,-2.2728 -3.4093,2.9042 c 0,0 -1.894,0.88388 -2.6516,1.0102 -0.75761,0.12627 -3.0304,0.75761 -3.7881,0.75761 -0.75761,0 -8.3338,0.12627 -8.3338,0.12627 z" /></g><path
         id="path3096"
         fill="#deaa87"
         d="m 308.28,408.16 c -4.7259,-2.2798 -0.8757,-8.3945 6.979,-2.5226 -4.9449,-1.3915 -8.015,-0.28426 -6.979,2.5226 z" /><path
         id="path3132"
         fill="#ff5555"
         d="m 303.6,411.76 c 2.5376,-0.19787 2.1213,-1.6276 4.0859,-1.6184 0.97904,-0.14743 1.5907,1.3914 2.5768,1.1899 1.4593,-0.68175 1.398,-1.3242 2.8426,-1.0484 1.3626,1.101 1.6232,1.8574 3.6533,2.3031 -2.354,0.96791 -2.3205,2.5901 -4.6647,3.1656 -0.90868,0.27842 -1.5505,-0.80004 -2.3165,-1.0534 -1.075,-0.19663 -2.023,1.3154 -3.1013,0.9815 -1.6746,-1.1584 -2.5434,-2.4652 -3.0762,-3.9198 z" /><path
         id="path3088"
         d="m 303.6,412.27 c 5.2633,1.9305 9.3224,1.4849 13.159,0.58488 -3.1873,1.2159 -3.8065,2.1289 -6.9812,1.4952 -2.6467,0.70816 -3.9588,0.411 -6.1774,-2.0801 z"
         fill="#c75555" /><path
         id="path3893"
         stroke-linejoin="round"
         d="m 316.07,508.08 c -2.694,10.258 -3.606,11.465 -4.9999,18.929"
         stroke="#d4aa00"
         stroke-linecap="round"
         stroke-width="1px"
         fill="none" /><path
         id="path3903"
         stroke-linejoin="round"
         d="m 308.57,499.86 c -4.171,4.8878 -8.6257,12.886 -3.5714,16.429"
         stroke="#d4aa00"
         stroke-linecap="round"
         stroke-width="1px"
         fill="none" /><path
         id="path3918"
         stroke-linejoin="round"
         d="m 310.36,459.86 c 0,0 -8.5714,5.7143 -11.786,3.5714 -2.1892,-1.4498 -1.3093,-2.2618 -3.2143,-3.2143 v 0"
         stroke="#c83737"
         stroke-linecap="round"
         stroke-width="1px"
         fill="none" /><path
         id="path3920"
         stroke-linejoin="round"
         d="m 318.57,458.79 c 0,0 3.1576,4.1071 6.3151,5.1786 3.1576,1.0714 5.6134,-4.4643 5.6134,-4.4643"
         stroke="#c83737"
         stroke-linecap="round"
         stroke-width="0.99114px"
         fill="none" /><path
         id="path3922"
         d="m 313.57,606.83 c 0,0.49311 -0.90895,1.2717 -1.7966,1.2717 -0.8876,0 -0.9758,-0.96795 -0.9758,-1.4611 0,-0.49311 0.2776,-0.70346 1.1652,-0.70346 0.8876,0 1.6072,0.39975 1.6072,0.89286 z"
         stroke-width="0"
         fill="#c83737" /><path
         id="path3924"
         d="m 313.57,606.83 c 0,0.49311 -0.71955,0.89285 -1.6072,0.89285 -0.8876,0 -1.6071,-0.39974 -1.6071,-0.89285 0,-0.49311 0.71954,-0.89286 1.6071,-0.89286 0.8876,0 1.6072,0.39975 1.6072,0.89286 z"
         stroke-width="0"
         fill="#c83737"
         transform="translate(-33.75,1.6071)" /><path
         id="path3927"
         d="m 227.66,441.72 c 3.1518,0.0164 6.3043,-0.009 9.4541,-0.1263"
         stroke="#deaa87"
         stroke-linecap="round"
         stroke-width="1.2237px"
         fill="none" /><path
         id="path3929"
         d="m 227.01,444.4 c 3.2055,-0.006 6.4108,-0.0439 9.6162,-0.0503"
         stroke="#deaa87"
         stroke-linecap="round"
         stroke-width="0.80372px"
         fill="none" /><path
         id="path3931"
         d="m 226.78,447.66 c 3.3592,0.32787 6.7411,0.16111 10.106,0.37871"
         stroke="#deaa87"
         stroke-linecap="round"
         stroke-width="1.278px"
         fill="none" /></g></g><metadata
     id="metadata1"><rdf:RDF><cc:Work><dc:format>image/svg+xml</dc:format><dc:type
           rdf:resource="http://purl.org/dc/dcmitype/StillImage" /><cc:license
           rdf:resource="http://creativecommons.org/publicdomain/zero/1.0/" /><dc:publisher><cc:Agent
             rdf:about="http://openclipart.org/"><dc:title>Openclipart</dc:title></cc:Agent></dc:publisher><dc:title>young housekeeper girl with broomstick</dc:title><dc:date>2013-04-24T13:24:37</dc:date><dc:description>girl, woman, household, cleaner, simple, housekeeper, broomstick, cleaning, cartoon</dc:description><dc:source>https://openclipart.org/detail/177423/young-housekeeper-girl-with-broomstick-by-olku-177423</dc:source><dc:creator><cc:Agent><dc:title>OlKu</dc:title></cc:Agent></dc:creator><dc:subject><rdf:Bag><rdf:li>broomstick</rdf:li><rdf:li>cartoon</rdf:li><rdf:li>cleaner</rdf:li><rdf:li>cleaning</rdf:li><rdf:li>girl</rdf:li><rdf:li>household</rdf:li><rdf:li>housekeeper</rdf:li><rdf:li>simple</rdf:li><rdf:li>woman</rdf:li></rdf:Bag></dc:subject></cc:Work><cc:License
         rdf:about="http://creativecommons.org/publicdomain/zero/1.0/"><cc:permits
           rdf:resource="http://creativecommons.org/ns#Reproduction" /><cc:permits
           rdf:resource="http://creativecommons.org/ns#Distribution" /><cc:permits
           rdf:resource="http://creativecommons.org/ns#DerivativeWorks" /></cc:License></rdf:RDF></metadata><g
     id="g2"
     transform="matrix(0.43456717,0,0,0.43456717,26.56655,-250.37877)"><animateTransform
       attributeName="transform"
       type="rotate"
       from="0 256.19 1258.52"
       to="360 256.19 1258.52"
       dur="10s"
       repeatCount="indefinite"
       additive="sum"/><g
       id="g249"
       transform="matrix(1.3246321,0,0,1.3246321,-742.58054,627.98666)"
       style="fill:#ffd42a;fill-opacity:1;filter:url(#filter776)"><path
         id="path5740"
         style="color:#000000;text-indent:0;text-transform:none;fill:#ffd42a;fill-opacity:1;fill-rule:evenodd"
         inkscape:connector-curvature="0"
         d="m 713.47,204.89 v 74.226 c -91.83,18.86 -161.52,100.63 -161.52,197.79 0,96.668 69.012,178.12 160.15,197.51 L 645.092,607.408 686.15,566.35 c -26.951,-20.333 -44.214,-52.667 -44.214,-89.444 0,-48.051 29.471,-88.501 71.524,-104.52 v 115.53 L 854.98,346.396 713.47,204.886 Z" /><path
         id="path2985-3"
         style="color:#000000;text-indent:0;text-transform:none;fill:#ffd42a;fill-opacity:1;fill-rule:evenodd"
         inkscape:connector-curvature="0"
         d="m 795.61,279.41 67.008,66.993 -41.074,41.074 c 26.961,20.328 44.23,52.647 44.23,89.428 0,48.051 -29.47,88.512 -71.524,104.54 v -115.55 l -141.52,141.52 141.52,141.52 v -74.226 c 91.812,-18.87 161.51,-100.65 161.51,-197.79 0,-96.667 -69.01,-178.1 -160.15,-197.49 z" /></g></g></svg>
